<?xml version="1.0" encoding="UTF-8"?>
<svg id="Capa_1" data-name="Capa 1" xmlns="http://www.w3.org/2000/svg" viewBox="0 0 16 16">
  <defs>
    <style>
      .cls-1 {
        fill: #13192e;
      }

      .cls-2 {
        fill: #89bad7;
      }

      .cls-3 {
        fill: #dfe161;
      }
    </style>
  </defs>
  <circle class="cls-2" cx="8" cy="8" r="8"/>
  <g>
    <path class="cls-3" d="M2.9,7.84c0-1.4.01-2.8,0-4.19,0-.41.12-.58.55-.58,1.59.02,3.18-.02,4.78.03.25,0,.59.25.71.48.45.88.84,1.79,1.22,2.7.14.33.32.45.68.44.88-.03,1.76-.02,2.65,0,.77.01,1,.44.57,1.1-.94,1.46-1.89,2.92-2.87,4.36-.14.21-.47.4-.72.4-2.32.03-4.65,0-6.97.02-.46,0-.59-.17-.58-.61.02-1.38,0-2.75,0-4.13ZM8.72,9.51c0,.46.43.91.89.92.45,0,.87-.38.89-.84.03-.49-.36-.91-.85-.93-.49-.02-.92.37-.93.85ZM6.37,4.64c-.48,0-.87.35-.89.82-.02.49.36.91.86.93.49.02.92-.38.93-.86,0-.48-.4-.88-.9-.89Z"/>
    <path class="cls-1" d="M3.16,8.2c0-1.4.01-2.8,0-4.19,0-.41.12-.58.55-.58,1.59.02,3.18-.02,4.78.03.25,0,.59.25.71.48.45.88.84,1.79,1.22,2.7.14.33.32.45.68.44.88-.03,1.76-.02,2.65,0,.77.01,1,.44.57,1.1-.94,1.46-1.89,2.92-2.87,4.36-.14.21-.47.4-.72.4-2.32.03-4.65,0-6.97.02-.46,0-.59-.17-.58-.61.02-1.38,0-2.75,0-4.13ZM8.98,9.87c0,.46.43.91.89.92.45,0,.87-.38.89-.84.03-.49-.36-.91-.85-.93-.49-.02-.92.37-.93.85ZM6.63,5c-.48,0-.87.35-.89.82-.02.49.36.91.86.93.49.02.92-.38.93-.86,0-.48-.4-.88-.9-.89Z"/>
  </g>
</svg>